{"title":"Hooked: Muscle Women (2008)","uid":9419463,"size":5797618333,"categoryP":"video","categoryS":"hd___tv_shows","magnet":"?xt=urn:btih:d029edf1f39ee120b92aaf21554ec3892397293f&amp;dn=Hooked%3A+Muscle+Women+%282008%29&amp;tr=udp%3A%2F%2Ftracker.openbittorrent.com%3A80&amp;tr=udp%3A%2F%2Fopen.demonii.com%3A1337&amp;tr=udp%3A%2F%2Ftracker.coppersurfer.tk%3A6969&amp;tr=udp%3A%2F%2Fexodus.desync.com%3A6969","seeders":0,"leechers":1,"uploader":null,"files":3,"time":1388534065,"description":"[url]http://www.nbcnews.com/id/3036750/ns/msnbc-documentaries/vp/26075262[/url]\n\nNot listed on IMDB. \nThanks to Fbbkh on saradas.org\noriginally from usenet\n\nFrom [url=https://en.wikipedia.org/wiki/Hooked:_Muscle_Women]wikipedia[/url]:\n[quote]&quot;Hooked: Muscle Women was a 2008 MSNBC documentary focused on professional female bodybuilding. The primary focuses of the documentary is on two International Federation of BodyBuilders (IFBB) pro bodybuilders, Colette Nelson and Kristy Hawkins and their competing in the 2008 Ms. International. The documentary deals with training, dieting, dating, and why they decided to become bodybuilders.\n\nThe next part of the documentary deals with performance enhancing drugs. The documentary also features Teresita Morales a pro natural female bodybuilder who competes in the World Natural Bodybuilding Federation (WNBF), which performs drug testing, unlike the IFBB which doesn't regular perform drug tests. There are notable differences in size and muscularity between the IFBB pros and the WNBF pros. At the end of the documentary both Colette and Kristy both don't win the Ms. International or even come in the top six. Despite the defeat both of them still determined to continue their bodybuilding career.&quot;[/quote]\n\nBasically a typical &quot;bodybuilders are freaks&quot; documentary.\n1080i HDTV TS format\n\nGeneral\nID                                       : 1 (0x1)\nComplete name                            :Hooked - Muscle Women 1080i HDTV DD5.1 MPEG2-TrollHD.tsHooked - Muscle Women 1080i HDTV DD5.1 MPEG2-TrollHD.ts\nFormat                                   : MPEG-TS\nFile size                                : 5.40 GiB\nDuration                                 : 44mn 22s\nOverall bit rate mode                    : Variable\nOverall bit rate                         : 17.4 Mbps\n\nVideo\nID                                       : 575 (0x23F)\nMenu ID                                  : 1 (0x1)\nFormat                                   : MPEG Video\nFormat version                           : Version 2\nFormat profile                           : Main@High\nFormat settings, BVOP                    : Yes\nFormat settings, Matrix                  : Custom\nFormat settings, GOP                     : M=3, N=15\nCodec ID                                 : 2\nDuration                                 : 44mn 22s\nBit rate mode                            : Variable\nBit rate                                 : 16.2 Mbps\nMaximum bit rate                         : 18.0 Mbps\nWidth                                    : 1 920 pixels\nHeight                                   : 1 080 pixels\nDisplay aspect ratio                     : 16:9\nFrame rate                               : 29.970 fps\nColor space                              : YUV\nChroma subsampling                       : 4:2:0\nBit depth                                : 8 bits\nScan type                                : Interlaced\nScan order                               : Top Field First\nCompression mode                         : Lossy\nBits/(Pixel*Frame)                       : 0.260\nTime code of first frame                 : 00:00:00;00\nTime code source                         : Group of pictures header\nStream size                              : 5.01 GiB (93%)\n\nAudio\nID                                       : 574 (0x23E)\nMenu ID                                  : 1 (0x1)\nFormat                                   : AC-3\nFormat/Info                              : Audio Coding 3\nMode extension                           : CM (complete main)\nFormat settings, Endianness              : Big\nCodec ID                                 : 129\nDuration                                 : 44mn 22s\nBit rate mode                            : Constant\nBit rate                                 : 384 Kbps\nChannel count                            : 6 channels\nChannel positions                        : Front: L C R, Side: L R, LFE\nSampling rate                            : 48.0 KHz\nBit depth                                : 16 bits\nCompression mode                         : Lossy\nDelay relative to video                  : 10ms\nStream size                              : 122 MiB (2%)\nLanguage                                 : English\n\nText #1\nID                                       : 575 (0x23F)-CC1\nMenu ID                                  : 1 (0x1)\nFormat                                   : EIA-608\nMuxing mode                              : A/53 / DTVCC Transport\nMuxing mode, more info                   : Muxed in Video #1\nDuration                                 : 44mn 22s\nBit rate mode                            : Constant\nStream size                              : 0.00 Byte (0%)\n\nText #2\nID                                       : 575 (0x23F)-1\nMenu ID                                  : 1 (0x1)\nFormat                                   : EIA-708\nMuxing mode                              : A/53 / DTVCC Transport\nMuxing mode, more info                   : Muxed in Video #1\nDuration                                 : 44mn 22s\nBit rate mode                            : Constant\nStream size                              : 0.00 Byte (0%)\n","torrent":{"xt":"urn:btih:d029edf1f39ee120b92aaf21554ec3892397293f","amp;dn":"Hooked%3A+Muscle+Women+%282008%29","amp;tr":["udp%3A%2F%2Ftracker.openbittorrent.com%3A80","udp%3A%2F%2Fopen.demonii.com%3A1337","udp%3A%2F%2Ftracker.coppersurfer.tk%3A6969","udp%3A%2F%2Fexodus.desync.com%3A6969"],"infoHash":"d029edf1f39ee120b92aaf21554ec3892397293f","infoHashBuffer":{"type":"Buffer","data":[208,41,237,241,243,158,225,32,185,42,175,33,85,78,195,137,35,151,41,63]},"announce":[],"urlList":[]}}